<svg width="116" height="116" viewBox="0 0 116 116" fill="none" xmlns="http://www.w3.org/2000/svg">
  <rect width="116" height="116" rx="11.6" fill="#F2F3F7" />
  <path d="M66.9837 63.1237C59.3546 58.7968 57.5897 58.7114 48.765 63.1237C42.9877 68.3508 53.4286 75.6163 58.5043 77.8541C58.8248 77.9953 59.1896 77.9714 59.4934 77.7973C65.6949 74.243 74.4187 67.3406 66.9837 63.1237Z" fill="#2F2F2F" />
  <path d="M48.765 63.1237C57.5897 58.7114 59.3546 58.7968 66.9837 63.1237M48.765 63.1237C42.9877 68.3508 53.4286 75.6163 58.5043 77.8541C58.8248 77.9953 59.1896 77.9714 59.4934 77.7973C65.6949 74.243 74.4187 67.3406 66.9837 63.1237M48.765 63.1237C39.0863 51.737 44.7322 41.5839 48.765 37.9307M66.9837 63.1237C71.2063 59.6128 77.1179 49.659 66.9837 37.9307" stroke="#2F2F2F" stroke-width="2.9" stroke-linecap="round" />
</svg>